<<<<<<< HEAD
<mxfile host="app.diagrams.net" agent="Mozilla/5.0 (Windows NT 10.0; Win64; x64) AppleWebKit/537.36 (KHTML, like Gecko) Chrome/131.0.0.0 Safari/537.36" version="25.0.1">
  <diagram name="Page-1" id="Z-NqLugCuG0nv1Qdva_Q">
    <mxGraphModel dx="1050" dy="563" grid="1" gridSize="10" guides="1" tooltips="1" connect="1" arrows="1" fold="1" page="1" pageScale="1" pageWidth="850" pageHeight="1100" background="#ffffff" math="0" shadow="0">
      <root>
        <mxCell id="0" />
        <mxCell id="1" parent="0" />
        <mxCell id="6ySi6W96JiQlbUNc7q3o-8" value="" style="shape=internalStorage;whiteSpace=wrap;html=1;backgroundOutline=1;labelBackgroundColor=none;" vertex="1" parent="1">
          <mxGeometry x="120" y="35" width="590" height="430" as="geometry" />
        </mxCell>
        <mxCell id="6ySi6W96JiQlbUNc7q3o-29" value="Notifications" style="edgeStyle=elbowEdgeStyle;rounded=0;orthogonalLoop=1;jettySize=auto;html=1;entryX=0.75;entryY=0.1;entryDx=0;entryDy=0;entryPerimeter=0;labelBackgroundColor=none;fontColor=default;strokeWidth=1;" edge="1" parent="1" source="6ySi6W96JiQlbUNc7q3o-1" target="6ySi6W96JiQlbUNc7q3o-2">
          <mxGeometry x="0.1107" y="-16" relative="1" as="geometry">
            <Array as="points">
              <mxPoint x="400" y="140" />
            </Array>
            <mxPoint as="offset" />
          </mxGeometry>
        </mxCell>
        <mxCell id="6ySi6W96JiQlbUNc7q3o-31" style="edgeStyle=elbowEdgeStyle;rounded=0;orthogonalLoop=1;jettySize=auto;html=1;labelBackgroundColor=none;fontColor=default;" edge="1" parent="1" source="6ySi6W96JiQlbUNc7q3o-1" target="6ySi6W96JiQlbUNc7q3o-8">
          <mxGeometry relative="1" as="geometry" />
        </mxCell>
        <mxCell id="6ySi6W96JiQlbUNc7q3o-1" value="Job Search Platform&lt;div&gt;(NextStep)&lt;/div&gt;" style="ellipse;whiteSpace=wrap;html=1;labelBackgroundColor=none;" vertex="1" parent="1">
          <mxGeometry x="270" y="190" width="200" height="120" as="geometry" />
        </mxCell>
        <mxCell id="6ySi6W96JiQlbUNc7q3o-22" value="Sign-in" style="edgeStyle=orthogonalEdgeStyle;rounded=0;orthogonalLoop=1;jettySize=auto;html=1;entryX=0;entryY=0.5;entryDx=0;entryDy=0;labelBackgroundColor=none;fontColor=default;" edge="1" parent="1" source="6ySi6W96JiQlbUNc7q3o-2" target="6ySi6W96JiQlbUNc7q3o-1">
          <mxGeometry relative="1" as="geometry">
            <Array as="points">
              <mxPoint x="215" y="250" />
            </Array>
          </mxGeometry>
        </mxCell>
        <mxCell id="6ySi6W96JiQlbUNc7q3o-24" value="Register" style="edgeStyle=elbowEdgeStyle;rounded=0;orthogonalLoop=1;jettySize=auto;html=1;entryX=0;entryY=0;entryDx=0;entryDy=0;labelBackgroundColor=none;fontColor=default;" edge="1" parent="1" source="6ySi6W96JiQlbUNc7q3o-2" target="6ySi6W96JiQlbUNc7q3o-1">
          <mxGeometry x="-0.251" y="34" relative="1" as="geometry">
            <Array as="points" />
            <mxPoint as="offset" />
          </mxGeometry>
        </mxCell>
        <mxCell id="6ySi6W96JiQlbUNc7q3o-30" value="Job search functions" style="edgeStyle=elbowEdgeStyle;rounded=0;orthogonalLoop=1;jettySize=auto;html=1;entryX=0.5;entryY=1;entryDx=0;entryDy=0;labelBackgroundColor=none;fontColor=default;" edge="1" parent="1" source="6ySi6W96JiQlbUNc7q3o-2" target="6ySi6W96JiQlbUNc7q3o-1">
          <mxGeometry x="0.2683" y="-10" relative="1" as="geometry">
            <Array as="points">
              <mxPoint x="170" y="240" />
            </Array>
            <mxPoint as="offset" />
          </mxGeometry>
        </mxCell>
        <mxCell id="6ySi6W96JiQlbUNc7q3o-2" value="Job Seeker" style="shape=umlActor;verticalLabelPosition=bottom;verticalAlign=top;html=1;outlineConnect=0;labelBackgroundColor=none;" vertex="1" parent="1">
          <mxGeometry x="200" y="100" width="30" height="60" as="geometry" />
        </mxCell>
        <mxCell id="6ySi6W96JiQlbUNc7q3o-27" style="edgeStyle=elbowEdgeStyle;rounded=0;orthogonalLoop=1;jettySize=auto;html=1;exitX=1;exitY=1;exitDx=0;exitDy=0;labelBackgroundColor=none;fontColor=default;" edge="1" parent="1" source="6ySi6W96JiQlbUNc7q3o-1" target="6ySi6W96JiQlbUNc7q3o-3">
          <mxGeometry relative="1" as="geometry" />
        </mxCell>
        <mxCell id="6ySi6W96JiQlbUNc7q3o-3" value="Job Posting" style="rounded=0;whiteSpace=wrap;html=1;labelBackgroundColor=none;" vertex="1" parent="1">
          <mxGeometry x="520" y="350" width="120" height="60" as="geometry" />
        </mxCell>
        <mxCell id="6ySi6W96JiQlbUNc7q3o-26" style="edgeStyle=elbowEdgeStyle;rounded=0;orthogonalLoop=1;jettySize=auto;html=1;labelBackgroundColor=none;fontColor=default;" edge="1" parent="1" source="6ySi6W96JiQlbUNc7q3o-1" target="6ySi6W96JiQlbUNc7q3o-4">
          <mxGeometry relative="1" as="geometry" />
        </mxCell>
        <mxCell id="6ySi6W96JiQlbUNc7q3o-4" value="Job Application" style="rounded=0;whiteSpace=wrap;html=1;labelBackgroundColor=none;" vertex="1" parent="1">
          <mxGeometry x="520" y="240" width="120" height="60" as="geometry" />
        </mxCell>
        <mxCell id="6ySi6W96JiQlbUNc7q3o-25" style="edgeStyle=elbowEdgeStyle;rounded=0;orthogonalLoop=1;jettySize=auto;html=1;exitX=1;exitY=0;exitDx=0;exitDy=0;labelBackgroundColor=none;fontColor=default;" edge="1" parent="1" source="6ySi6W96JiQlbUNc7q3o-1" target="6ySi6W96JiQlbUNc7q3o-5">
          <mxGeometry relative="1" as="geometry" />
        </mxCell>
        <mxCell id="6ySi6W96JiQlbUNc7q3o-5" value="Job Seeker&amp;nbsp;&lt;div&gt;Profile&lt;/div&gt;" style="rounded=0;whiteSpace=wrap;html=1;labelBackgroundColor=none;" vertex="1" parent="1">
          <mxGeometry x="520" y="130" width="120" height="60" as="geometry" />
        </mxCell>
        <mxCell id="6ySi6W96JiQlbUNc7q3o-32" value="Context Diagram" style="text;strokeColor=none;fillColor=none;html=1;fontSize=11;fontStyle=1;verticalAlign=middle;align=center;fontFamily=Helvetica;labelBackgroundColor=none;" vertex="1" parent="1">
          <mxGeometry x="340" y="25" width="100" height="40" as="geometry" />
        </mxCell>
      </root>
    </mxGraphModel>
  </diagram>
</mxfile>
=======
<mxfile host="65bd71144e">
    <diagram name="Page-1" id="Z-NqLugCuG0nv1Qdva_Q">
        <mxGraphModel dx="764" dy="563" grid="1" gridSize="10" guides="1" tooltips="1" connect="1" arrows="1" fold="1" page="1" pageScale="1" pageWidth="850" pageHeight="1100" background="#ffffff" math="0" shadow="0">
            <root>
                <mxCell id="0"/>
                <mxCell id="1" parent="0"/>
                <mxCell id="6ySi6W96JiQlbUNc7q3o-8" value="" style="shape=internalStorage;whiteSpace=wrap;html=1;backgroundOutline=1;labelBackgroundColor=none;" parent="1" vertex="1">
                    <mxGeometry x="120" y="35" width="590" height="430" as="geometry"/>
                </mxCell>
                <mxCell id="6ySi6W96JiQlbUNc7q3o-31" style="edgeStyle=elbowEdgeStyle;rounded=0;orthogonalLoop=1;jettySize=auto;html=1;labelBackgroundColor=none;fontColor=default;" parent="1" source="6ySi6W96JiQlbUNc7q3o-1" target="6ySi6W96JiQlbUNc7q3o-8" edge="1">
                    <mxGeometry relative="1" as="geometry"/>
                </mxCell>
                <mxCell id="6ySi6W96JiQlbUNc7q3o-1" value="Job Search Platform&lt;div&gt;(NextStep)&lt;/div&gt;" style="ellipse;whiteSpace=wrap;html=1;labelBackgroundColor=none;" parent="1" vertex="1">
                    <mxGeometry x="270" y="190" width="200" height="120" as="geometry"/>
                </mxCell>
                <mxCell id="6ySi6W96JiQlbUNc7q3o-22" value="Sign-in" style="edgeStyle=orthogonalEdgeStyle;rounded=0;orthogonalLoop=1;jettySize=auto;html=1;entryX=0;entryY=0.5;entryDx=0;entryDy=0;labelBackgroundColor=none;fontColor=default;" parent="1" source="6ySi6W96JiQlbUNc7q3o-2" target="6ySi6W96JiQlbUNc7q3o-1" edge="1">
                    <mxGeometry relative="1" as="geometry">
                        <Array as="points">
                            <mxPoint x="215" y="250"/>
                        </Array>
                    </mxGeometry>
                </mxCell>
                <mxCell id="6ySi6W96JiQlbUNc7q3o-24" value="Sign-up" style="edgeStyle=elbowEdgeStyle;rounded=0;orthogonalLoop=1;jettySize=auto;html=1;entryX=0;entryY=0;entryDx=0;entryDy=0;labelBackgroundColor=none;fontColor=default;" parent="1" source="6ySi6W96JiQlbUNc7q3o-2" target="6ySi6W96JiQlbUNc7q3o-1" edge="1">
                    <mxGeometry x="-0.251" y="34" relative="1" as="geometry">
                        <Array as="points"/>
                        <mxPoint as="offset"/>
                    </mxGeometry>
                </mxCell>
                <mxCell id="6ySi6W96JiQlbUNc7q3o-30" value="Job search" style="edgeStyle=elbowEdgeStyle;rounded=0;orthogonalLoop=1;jettySize=auto;html=1;entryX=0.5;entryY=1;entryDx=0;entryDy=0;labelBackgroundColor=none;fontColor=default;" parent="1" source="6ySi6W96JiQlbUNc7q3o-2" target="6ySi6W96JiQlbUNc7q3o-1" edge="1">
                    <mxGeometry x="0.2683" y="-10" relative="1" as="geometry">
                        <Array as="points">
                            <mxPoint x="170" y="240"/>
                        </Array>
                        <mxPoint as="offset"/>
                    </mxGeometry>
                </mxCell>
                <mxCell id="6ySi6W96JiQlbUNc7q3o-2" value="Job Seeker" style="shape=umlActor;verticalLabelPosition=bottom;verticalAlign=top;html=1;outlineConnect=0;labelBackgroundColor=none;" parent="1" vertex="1">
                    <mxGeometry x="200" y="100" width="30" height="60" as="geometry"/>
                </mxCell>
                <mxCell id="6ySi6W96JiQlbUNc7q3o-27" style="edgeStyle=elbowEdgeStyle;rounded=0;orthogonalLoop=1;jettySize=auto;html=1;exitX=1;exitY=1;exitDx=0;exitDy=0;labelBackgroundColor=none;fontColor=default;" parent="1" source="6ySi6W96JiQlbUNc7q3o-1" target="6ySi6W96JiQlbUNc7q3o-3" edge="1">
                    <mxGeometry relative="1" as="geometry"/>
                </mxCell>
                <mxCell id="6ySi6W96JiQlbUNc7q3o-3" value="Job Posting" style="rounded=0;whiteSpace=wrap;html=1;labelBackgroundColor=none;" parent="1" vertex="1">
                    <mxGeometry x="520" y="350" width="120" height="60" as="geometry"/>
                </mxCell>
                <mxCell id="6ySi6W96JiQlbUNc7q3o-26" style="edgeStyle=elbowEdgeStyle;rounded=0;orthogonalLoop=1;jettySize=auto;html=1;labelBackgroundColor=none;fontColor=default;" parent="1" source="6ySi6W96JiQlbUNc7q3o-1" target="6ySi6W96JiQlbUNc7q3o-4" edge="1">
                    <mxGeometry relative="1" as="geometry"/>
                </mxCell>
                <mxCell id="6ySi6W96JiQlbUNc7q3o-4" value="Job Application" style="rounded=0;whiteSpace=wrap;html=1;labelBackgroundColor=none;" parent="1" vertex="1">
                    <mxGeometry x="520" y="240" width="120" height="60" as="geometry"/>
                </mxCell>
                <mxCell id="6ySi6W96JiQlbUNc7q3o-25" style="edgeStyle=elbowEdgeStyle;rounded=0;orthogonalLoop=1;jettySize=auto;html=1;exitX=1;exitY=0;exitDx=0;exitDy=0;labelBackgroundColor=none;fontColor=default;" parent="1" source="6ySi6W96JiQlbUNc7q3o-1" target="6ySi6W96JiQlbUNc7q3o-5" edge="1">
                    <mxGeometry relative="1" as="geometry"/>
                </mxCell>
                <mxCell id="6ySi6W96JiQlbUNc7q3o-5" value="Job Seeker&amp;nbsp;&lt;div&gt;Profile&lt;/div&gt;" style="rounded=0;whiteSpace=wrap;html=1;labelBackgroundColor=none;" parent="1" vertex="1">
                    <mxGeometry x="520" y="130" width="120" height="60" as="geometry"/>
                </mxCell>
                <mxCell id="6ySi6W96JiQlbUNc7q3o-32" value="Context Diagram" style="text;strokeColor=none;fillColor=none;html=1;fontSize=11;fontStyle=1;verticalAlign=middle;align=center;fontFamily=Helvetica;labelBackgroundColor=none;" parent="1" vertex="1">
                    <mxGeometry x="340" y="25" width="100" height="40" as="geometry"/>
                </mxCell>
                <mxCell id="4" value="Post Jobs" style="edgeStyle=none;html=1;" edge="1" parent="1" source="2" target="6ySi6W96JiQlbUNc7q3o-1">
                    <mxGeometry relative="1" as="geometry">
                        <Array as="points">
                            <mxPoint x="370" y="390"/>
                        </Array>
                    </mxGeometry>
                </mxCell>
                <mxCell id="5" value="Offer Position" style="edgeStyle=none;html=1;exitX=1;exitY=1;exitDx=0;exitDy=0;exitPerimeter=0;" edge="1" parent="1" source="2">
                    <mxGeometry relative="1" as="geometry">
                        <mxPoint x="431" y="295" as="targetPoint"/>
                        <Array as="points">
                            <mxPoint x="430" y="420"/>
                        </Array>
                    </mxGeometry>
                </mxCell>
                <mxCell id="2" value="Employer" style="shape=umlActor;verticalLabelPosition=bottom;verticalAlign=top;html=1;outlineConnect=0;labelBackgroundColor=none;" vertex="1" parent="1">
                    <mxGeometry x="200" y="360" width="30" height="60" as="geometry"/>
                </mxCell>
            </root>
        </mxGraphModel>
    </diagram>
</mxfile>
>>>>>>> c385fae2c82551af2029c416a05994df92289c1f
